<?xml version="1.0" encoding="UTF-8"?>
<svg version="1.1" xmlns="http://www.w3.org/2000/svg" width="1024" height="1024">
<path d="M0 0 C337.92 0 675.84 0 1024 0 C1024 337.92 1024 675.84 1024 1024 C686.08 1024 348.16 1024 0 1024 C0 686.08 0 348.16 0 0 Z " fill="#C43C3C" transform="translate(0,0)"/>
<path d="M0 0 C0 17.49 0 34.98 0 53 C34.32 53 68.64 53 104 53 C104 122.63 104 192.26 104 264 C121.49 264 138.98 264 157 264 C157 281.49 157 298.98 157 317 C122.68 317 88.36 317 53 317 C53 334.16 53 351.32 53 369 C69.83 369 86.66 369 104 369 C104 403.32 104 437.64 104 473 C87.17 473 70.34 473 53 473 C53 490.16 53 507.32 53 525 C-19.27 525 -91.54 525 -166 525 C-166 541.83 -166 558.66 -166 576 C-111.22 576 -56.44 576 0 576 C0 610.98 0 645.96 0 682 C-141.9 682 -283.8 682 -430 682 C-430 613.03 -430 544.06 -430 473 C-413.17 473 -396.34 473 -379 473 C-379 455.51 -379 438.02 -379 420 C-361.51 420 -344.02 420 -326 420 C-326 315.72 -326 211.44 -326 104 C-343.16 104 -360.32 104 -378 104 C-378 87.17 -378 70.34 -378 53 C-360.84 53 -343.68 53 -326 53 C-326 35.84 -326 18.68 -326 1 C-284.75835847 0.87257156 -243.51671685 0.74517197 -202.27507509 0.61781773 C-197.41075969 0.60279669 -192.5464443 0.58777538 -187.68212891 0.57275391 C-186.22947706 0.56826798 -186.22947706 0.56826798 -184.74747871 0.56369144 C-169.04810355 0.51520968 -153.34872846 0.46670614 -137.6493534 0.41819459 C-121.55118716 0.36845125 -105.45302085 0.3187312 -89.35485446 0.26903296 C-79.41420628 0.23834345 -69.47355815 0.20763559 -59.53291009 0.17690456 C-52.72460359 0.15585874 -45.91629702 0.13483546 -39.1079904 0.11383021 C-35.17467503 0.10169432 -31.24135969 0.08954819 -27.30804443 0.07737541 C-23.71195137 0.06624648 -20.11585822 0.05514564 -16.519765 0.0440678 C-14.59259387 0.03812361 -12.66542284 0.03214879 -10.73825181 0.02617311 C-9.03934841 0.02094802 -9.03934841 0.02094802 -7.30612373 0.01561737 C-6.32264808 0.01257961 -5.33917242 0.00954185 -4.32589447 0.00641203 C-2.88393355 0.00243683 -1.44196641 0 0 0 Z " fill="#C2894C" transform="translate(665,214)"/>
<path d="M0 0 C142.56 0 285.12 0 432 0 C432 17.16 432 34.32 432 52 C431.34 52 430.68 52 430 52 C430 52.66 430 53.32 430 54 C323.08 54 216.16 54 106 54 C106 71.16 106 88.32 106 106 C88.84 106 71.68 106 54 106 C54 122.83 54 139.66 54 157 C71.16 157 88.32 157 106 157 C106 261.28 106 365.56 106 473 C88.51 473 71.02 473 53 473 C53 490.49 53 507.98 53 526 C36.17 526 19.34 526 2 526 C2 559.99 2 593.98 2 629 C-15.49 629 -32.98 629 -51 629 C-51 663.98 -51 698.96 -51 735 C-68.16 735 -85.32 735 -103 735 C-103 699.69 -103 664.38 -103 628 C-85.84 628 -68.68 628 -51 628 C-51 594.34 -51 560.68 -51 526 C-68.16 526 -85.32 526 -103 526 C-103 508.18 -103 490.36 -103 472 C-119.83 472 -136.66 472 -154 472 C-154 368.05 -154 264.1 -154 157 C-136.84 157 -119.68 157 -102 157 C-102 140.17 -102 123.34 -102 106 C-85.17 106 -68.34 106 -51 106 C-51 88.51 -51 71.02 -51 53 C-34.17 53 -17.34 53 0 53 C0 35.51 0 18.02 0 0 Z " fill="#2C1919" transform="translate(233,161)"/>
<path d="M0 0 C17.82 0 35.64 0 54 0 C54 16.83 54 33.66 54 51 C70.83 51 87.66 51 105 51 C105 103.8 105 156.6 105 211 C121.83 211 138.66 211 156 211 C156 296.8 156 382.6 156 471 C143.46 471 130.92 471 118 471 C118 512.25 118 553.5 118 596 C101.5 596 85 596 68 596 C68 571.91 68 547.82 68 523 C29.06 523 -9.88 523 -50 523 C-50 557.98 -50 592.96 -50 629 C-67.82 629 -85.64 629 -104 629 C-104 594.02 -104 559.04 -104 523 C-158.78 523 -213.56 523 -270 523 C-270 506.17 -270 489.34 -270 472 C-197.73 472 -125.46 472 -51 472 C-51 454.84 -51 437.68 -51 420 C-34.17 420 -17.34 420 0 420 C0 385.68 0 351.36 0 316 C-16.83 316 -33.66 316 -51 316 C-51 298.84 -51 281.68 -51 264 C-16.68 264 17.64 264 53 264 C53 246.51 53 229.02 53 211 C35.51 211 18.02 211 0 211 C0 141.37 0 71.74 0 0 Z " fill="#2D1A19" transform="translate(769,267)"/>
<path d="M0 0 C124.41 0 248.82 0 377 0 C377 0.33 377 0.66 377 1 C270.08 1 163.16 1 53 1 C53 18.16 53 35.32 53 53 C35.84 53 18.68 53 1 53 C1 69.83 1 86.66 1 104 C18.16 104 35.32 104 53 104 C53 208.28 53 312.56 53 420 C1.19 420 -50.62 420 -104 420 C-104 402.84 -104 385.68 -104 368 C-120.5 368 -137 368 -154 368 C-154 298.7 -154 229.4 -154 158 C-137.5 158 -121 158 -104 158 C-104 140.18 -104 122.36 -104 104 C-86.51 104 -69.02 104 -51 104 C-51 87.5 -51 71 -51 54 C-34.17 54 -17.34 54 0 54 C0 36.18 0 18.36 0 0 Z " fill="#874F32" transform="translate(286,214)"/>
<path d="M0 0 C0 104.28 0 208.56 0 316 C-17.49 316 -34.98 316 -53 316 C-53 212.05 -53 108.1 -53 1 C-1 0 -1 0 0 0 Z " fill="#2D1919" transform="translate(339,318)"/>
<path d="M0 0 C16.5 0 33 0 50 0 C50 55.11 50 110.22 50 167 C33.5 167 17 167 0 167 C0 111.89 0 56.78 0 0 Z " fill="#3D6EC4" transform="translate(837,696)"/>
<path d="M0 0 C17.49 0 34.98 0 53 0 C53 17.49 53 34.98 53 53 C35.84 53 18.68 53 1 53 C1 86.99 1 120.98 1 156 C-16.16 156 -33.32 156 -51 156 C-51 122.01 -51 88.02 -51 53 C-34.17 53 -17.34 53 0 53 C0 35.51 0 18.02 0 0 Z " fill="#874E32" transform="translate(286,634)"/>
<path d="M0 0 C16.5 0 33 0 50 0 C50 33.99 50 67.98 50 103 C24.92 103 -0.16 103 -26 103 C-26 85.84 -26 68.68 -26 51 C-17.42 51 -8.84 51 0 51 C0 34.17 0 17.34 0 0 Z " fill="#C1884B" transform="translate(824,583)"/>
<path d="M0 0 C36.63 0 73.26 0 111 0 C111 17.82 111 35.64 111 54 C74.37 54 37.74 54 0 54 C0 36.18 0 18.36 0 0 Z " fill="#864D31" transform="translate(554,790)"/>
<path d="M0 0 C18.15 0 36.3 0 55 0 C55 34.65 55 69.3 55 105 C36.85 105 18.7 105 0 105 C0 70.35 0 35.7 0 0 Z " fill="#2D1A19" transform="translate(444,373)"/>
<path d="M0 0 C17.82 0 35.64 0 54 0 C54 34.98 54 69.96 54 106 C36.18 106 18.36 106 0 106 C0 71.02 0 36.04 0 0 Z " fill="#2D1A19" transform="translate(665,372)"/>
<path d="M0 0 C17.49 0 34.98 0 53 0 C53 34.98 53 69.96 53 106 C35.51 106 18.02 106 0 106 C0 71.02 0 36.04 0 0 Z " fill="#874E32" transform="translate(182,790)"/>
<path d="M0 0 C34.32 0 68.64 0 104 0 C104 17.49 104 34.98 104 53 C69.68 53 35.36 53 0 53 C0 35.51 0 18.02 0 0 Z " fill="#2E1A1A" transform="translate(665,214)"/>
<path d="M0 0 C16.83 0 33.66 0 51 0 C51 34.32 51 68.64 51 104 C34.17 104 17.34 104 0 104 C0 103.67 0 103.34 0 103 C16.5 103 33 103 50 103 C50 85.84 50 68.68 50 51 C33.5 51 17 51 0 51 C0 34.17 0 17.34 0 0 Z " fill="#864E32" transform="translate(718,583)"/>
<path d="M0 0 C142.23 0 284.46 0 431 0 C431 17.16 431 34.32 431 52 C428.22302143 53.38848928 425.97522549 53.12407937 422.86615562 53.12304783 C420.89032228 53.1260344 420.89032228 53.1260344 418.87457311 53.12908131 C417.39875291 53.12622788 415.92293289 53.12328227 414.44711304 53.12025452 C412.89033701 53.1206902 411.33356106 53.12156506 409.77678549 53.12284368 C405.48290157 53.12508917 401.1890424 53.12106661 396.89516163 53.11606562 C392.27075003 53.11176209 387.64633992 53.11320748 383.02192688 53.1139679 C375.00450686 53.11449319 366.98709495 53.11134579 358.96967697 53.10573006 C347.37772162 53.09761583 335.78577021 53.09499992 324.19381233 53.09374207 C305.38832057 53.09155142 286.58283315 53.08489101 267.77734375 53.07543945 C249.50553408 53.06626565 231.23372557 53.05918466 212.96191406 53.05493164 C211.83634218 53.05466892 210.71077029 53.05440619 209.55109017 53.05413551 C203.90463658 53.05283051 198.25818298 53.05156679 192.61172938 53.05032361 C145.74114977 53.03995061 98.87057545 53.02205747 52 53 C52 70.82 52 88.64 52 107 C26.755 106.01 26.755 106.01 1 105 C1 104.67 1 104.34 1 104 C17.5 104 34 104 51 104 C50.98839844 100.25785156 50.97679687 96.51570313 50.96484375 92.66015625 C50.95705453 89.05281662 50.950977 85.44547791 50.94506836 81.83813477 C50.94002637 79.32283105 50.93319297 76.80753028 50.92456055 74.29223633 C50.91248906 70.68570225 50.90677051 67.07920677 50.90234375 63.47265625 C50.89718246 62.34038101 50.89202118 61.20810577 50.88670349 60.04151917 C50.88662796 59.00051559 50.88655243 57.95951202 50.88647461 56.88696289 C50.884254 55.96540909 50.88203339 55.04385529 50.87974548 54.09437561 C51 52 51 52 52 51 C54.00163007 50.90218526 56.00677803 50.87628749 58.01079655 50.87695217 C59.32602773 50.87496112 60.64125891 50.87297007 61.99634558 50.87091869 C63.47510804 50.87377229 64.95387033 50.8767179 66.43263245 50.87974548 C67.98854542 50.87930992 69.54445832 50.87843528 71.10037082 50.87715632 C75.39651408 50.87490847 79.69263265 50.87893658 83.98877275 50.88393438 C88.6138836 50.88823456 93.23899294 50.88679276 97.86410522 50.8860321 C105.88427119 50.88550659 113.90442905 50.88865621 121.92459297 50.89426994 C133.52054432 50.90238129 145.11649173 50.90499979 156.71244561 50.90625793 C175.52403823 50.90844903 194.33562653 50.91511067 213.1472168 50.92456055 C231.42586241 50.93373318 249.70450685 50.94081474 267.9831543 50.94506836 C269.67190621 50.94546244 269.67190621 50.94546244 271.39477433 50.94586449 C277.04249855 50.94716949 282.69022278 50.9484332 288.33794701 50.94967639 C335.22530116 50.9600508 382.11265002 50.97794501 429 51 C429 34.83 429 18.66 429 2 C288.09 2 147.18 2 2 2 C1.67 18.17 1.34 34.34 1 51 C0.67 51 0.34 51 0 51 C0 34.17 0 17.34 0 0 Z " fill="#0F070A" transform="translate(234,161)"/>
<path d="M0 0 C17.49 0 34.98 0 53 0 C53 9.24 53 18.48 53 28 C35.51 28 18.02 28 0 28 C0 18.76 0 9.52 0 0 Z " fill="#BF864B" transform="translate(769,711)"/>
<path d="M0 0 C0 104.28 0 208.56 0 316 C-17.49 316 -34.98 316 -53 316 C-53 212.05 -53 108.1 -53 1 C-1 0 -1 0 0 0 Z M-51 3 C-51 105.63 -51 208.26 -51 314 C-34.5 314 -18 314 -1 314 C-1 211.37 -1 108.74 -1 3 C-17.5 3 -34 3 -51 3 Z " fill="#0F080A" transform="translate(339,318)"/>
<path d="M0 0 C17.82 0 35.64 0 54 0 C54 17.16 54 34.32 54 52 C53.67 52 53.34 52 53 52 C53 35.5 53 19 53 2 C36.17 2 19.34 2 2 2 C2 70.31 2 138.62 2 209 C19.16 209 36.32 209 54 209 C55.69295345 210.69295345 55.12749729 212.82896484 55.12939453 215.14648438 C55.13254669 216.24432251 55.13569885 217.34216064 55.13894653 218.4732666 C55.13591019 220.26540588 55.13591019 220.26540588 55.1328125 222.09375 C55.13376923 223.31074585 55.13472595 224.5277417 55.13571167 225.78161621 C55.13639372 228.36075899 55.13453772 230.93990347 55.13037109 233.51904297 C55.12502322 237.48278636 55.13031529 241.44641642 55.13671875 245.41015625 C55.13605797 247.90885442 55.13477682 250.40755252 55.1328125 252.90625 C55.13483673 254.10100952 55.13686096 255.29576904 55.13894653 256.5267334 C55.13421829 258.1734906 55.13421829 258.1734906 55.12939453 259.85351562 C55.12859894 260.8253479 55.12780334 261.79718018 55.12698364 262.79846191 C55 265 55 265 54 266 C52.65927183 266.09527037 51.31357497 266.1218877 49.96946716 266.12025452 C49.10143463 266.12162918 48.2334021 266.12300385 47.33906555 266.12442017 C45.89976936 266.11902725 45.89976936 266.11902725 44.43139648 266.11352539 C43.42663269 266.11367142 42.4218689 266.11381744 41.38665771 266.1139679 C38.04811483 266.1132683 34.70962695 266.10547374 31.37109375 266.09765625 C29.06323782 266.09579224 26.75538149 266.09436826 24.44752502 266.09336853 C18.35982174 266.08954204 12.27214214 266.07971065 6.18444824 266.06866455 C-1.11259217 266.05665932 -8.40964048 266.05204881 -15.70668793 266.04621124 C-26.80447512 266.03649896 -37.90221028 266.01734331 -49 266 C-49 281.84 -49 297.68 -49 314 C-32.83 314 -16.66 314 0 314 C0 314.33 0 314.66 0 315 C-16.83 315 -33.66 315 -51 315 C-51 298.17 -51 281.34 -51 264 C-16.68 264 17.64 264 53 264 C53 246.51 53 229.02 53 211 C35.51 211 18.02 211 0 211 C0 141.37 0 71.74 0 0 Z " fill="#120A0B" transform="translate(769,267)"/>
<path d="M0 0 C0.33 0 0.66 0 1 0 C1 103.95 1 207.9 1 315 C-32.99 315 -66.98 315 -102 315 C-102 297.84 -102 280.68 -102 263 C-118.5 263 -135 263 -152 263 C-152 194.03 -152 125.06 -152 54 C-135.83 54 -119.66 54 -103 54 C-103 54.33 -103 54.66 -103 55 C-118.84 55 -134.68 55 -151 55 C-151 122.98 -151 190.96 -151 261 C-134.83 261 -118.66 261 -102 261 C-99.85217167 264.22174249 -99.75350852 265.0433731 -99.77294922 268.74682617 C-99.77310028 269.70759567 -99.77325134 270.66836517 -99.77340698 271.6582489 C-99.78372955 272.69270645 -99.79405212 273.727164 -99.8046875 274.79296875 C-99.8075174 275.85413406 -99.81034729 276.91529938 -99.81326294 278.00862122 C-99.82446816 281.40169497 -99.84957353 284.79450587 -99.875 288.1875 C-99.88502935 290.48632432 -99.89415528 292.78515276 -99.90234375 295.08398438 C-99.92440859 300.72274611 -99.95788956 306.36135428 -100 312 C-98.77668976 311.99777939 -97.55337952 311.99555878 -96.29299927 311.99327087 C-84.78559768 311.97303222 -73.2781997 311.95802435 -61.77078438 311.94818783 C-55.85418076 311.94296085 -49.93759147 311.93586653 -44.02099609 311.92456055 C-38.31519301 311.91372513 -32.60940373 311.90772177 -26.90359116 311.90512276 C-24.72261208 311.90326969 -22.54163378 311.89965134 -20.36066055 311.89426994 C-17.31480503 311.88705086 -14.26900718 311.88600943 -11.22314453 311.88647461 C-10.31396271 311.88287933 -9.40478088 311.87928406 -8.4680481 311.87557983 C-2.22810432 311.88594784 -2.22810432 311.88594784 0 313 C0 209.71 0 106.42 0 0 Z " fill="#B1663E" transform="translate(284,319)"/>
<path d="M0 0 C39.6 0 79.2 0 120 0 C120 0.66 120 1.32 120 2 C81.06 2 42.12 2 2 2 C2 36.98 2 71.96 2 108 C-15.82 108 -33.64 108 -52 108 C-52.0964501 72.31346224 -51.79981209 36.67618393 -51 1 C-50.34 1 -49.68 1 -49 1 C-49 35.65 -49 70.3 -49 106 C-33.16 106 -17.32 106 -1 106 C-1.01740234 94.77355469 -1.01740234 94.77355469 -1.03515625 83.3203125 C-1.04026343 78.58984289 -1.04507724 73.85937666 -1.04882812 69.12890625 C-1.05481492 61.61408791 -1.0619109 54.0992817 -1.07543945 46.58447266 C-1.08627391 40.52854148 -1.09227803 34.47262331 -1.09487724 28.4166832 C-1.09673048 26.10173208 -1.10034916 23.7867817 -1.10573006 21.47183609 C-1.11294787 18.23918344 -1.11399062 15.00658514 -1.11352539 11.77392578 C-1.11712067 10.80863953 -1.12071594 9.84335327 -1.12442017 8.84881592 C-1.1230455 7.97099457 -1.12167084 7.09317322 -1.12025452 6.18875122 C-1.12117631 5.42366304 -1.1220981 4.65857487 -1.12304783 3.8703022 C-1 2 -1 2 0 0 Z " fill="#1B0D11" transform="translate(717,788)"/>
<path d="M0 0 C72.27 0 144.54 0 219 0 C219 0.66 219 1.32 219 2 C147.39 2 75.78 2 2 2 C2 17.18 2 32.36 2 48 C56.12 48 110.24 48 166 48 C163.19921562 50.80078438 161.45988113 50.26048909 157.53341675 50.2784729 C156.52629959 50.2871615 156.52629959 50.2871615 155.49883664 50.29602563 C153.238597 50.31309386 150.9785607 50.31590792 148.71826172 50.31884766 C147.10221858 50.32814115 145.48618027 50.33830895 143.87014771 50.34928894 C139.4737224 50.37666838 135.07732927 50.39176178 130.68084097 50.40471697 C126.08969002 50.42031288 121.49860513 50.4471143 116.90750122 50.4727478 C108.20943103 50.51959847 99.5113485 50.55631207 90.81321633 50.58942068 C80.91247115 50.62759773 71.01179222 50.67701939 61.11110282 50.72740483 C40.74077795 50.8308182 20.3704254 50.91856332 0 51 C0 34.17 0 17.34 0 0 Z " fill="#0B0006" transform="translate(499,739)"/>
<path d="M0 0 C33.99 0 67.98 0 103 0 C103 69.3 103 138.6 103 210 C120.82 210 138.64 210 157 210 C157 227.16 157 244.32 157 262 C122.68 262 88.36 262 53 262 C53 261.67 53 261.34 53 261 C86.66 261 120.32 261 155 261 C155 244.83 155 228.66 155 212 C149.40417969 212.03480469 149.40417969 212.03480469 143.6953125 212.0703125 C140.09456726 212.08589611 136.49382574 212.09804822 132.89306641 212.10986328 C130.38458585 212.11994011 127.87611708 212.13360179 125.36767578 212.15087891 C121.76852512 212.17505337 118.16952933 212.18646612 114.5703125 212.1953125 C113.44319855 212.20563507 112.31608459 212.21595764 111.15481567 212.22659302 C110.11388763 212.22674408 109.07295959 212.22689514 108.00048828 212.22705078 C107.08115509 212.231492 106.1618219 212.23593323 105.21463013 212.24050903 C103 212 103 212 101 210 C100.80661573 207.24171002 100.73958222 204.58419929 100.75949097 201.82504272 C100.75778212 200.96987143 100.75607327 200.11470014 100.75431263 199.23361456 C100.75100318 196.35146013 100.76204529 193.46953554 100.77294922 190.58740234 C100.77351302 188.52802028 100.77319739 186.46863781 100.77206421 184.40925598 C100.77148848 178.80414634 100.78327839 173.19912164 100.79721212 167.59403181 C100.80968282 161.74169815 100.81088708 155.88936272 100.81326294 150.03701782 C100.8194885 138.94832621 100.83591384 127.85967385 100.85596192 116.77099955 C100.88245895 101.7914266 100.89328487 86.81184297 100.90496635 71.8322525 C100.9237937 48.22147224 100.96363221 24.61077484 101 1 C67.67 1 34.34 1 0 1 C0 0.67 0 0.34 0 0 Z " fill="#ECB760" transform="translate(665,268)"/>
<path d="M0 0 C17.82 0 35.64 0 54 0 C54 34.98 54 69.96 54 106 C36.18 106 18.36 106 0 106 C0 71.02 0 36.04 0 0 Z M2 2 C2 35.33 2 68.66 2 103 C18.17 103 34.34 103 51 103 C51 69.67 51 36.34 51 2 C34.83 2 18.66 2 2 2 Z " fill="#1A100D" transform="translate(665,372)"/>
<path d="M0 0 C0.66 0 1.32 0 2 0 C2 17.16 2 34.32 2 52 C20.48 52 38.96 52 58 52 C58 69.82 58 87.64 58 106 C94.63 106 131.26 106 169 106 C169 123.16 169 140.32 169 158 C168.34 158 167.68 158 167 158 C167 141.83 167 125.66 167 109 C159.15476562 109.02320313 151.30953125 109.04640625 143.2265625 109.0703125 C138.26822588 109.08052676 133.30990215 109.09015435 128.3515625 109.09765625 C120.47458211 109.10963029 112.59764803 109.12382335 104.72070312 109.15087891 C98.37299465 109.17254641 92.02533582 109.18455573 85.67759323 109.18975449 C83.25099277 109.19346122 80.82439514 109.20069911 78.3978157 109.21146011 C75.00945326 109.22589404 71.6212982 109.22798134 68.23291016 109.22705078 C66.71485023 109.23783661 66.71485023 109.23783661 65.16612244 109.24884033 C64.24623032 109.246091 63.3263382 109.24334167 62.37857056 109.24050903 C61.57661066 109.24235262 60.77465076 109.24419621 59.94838905 109.24609566 C58 109 58 109 56 107 C55.75949097 104.74740601 55.75949097 104.74740601 55.77294922 101.90771484 C55.77310028 100.84676605 55.77325134 99.78581726 55.77340698 98.69271851 C55.78889084 96.96923691 55.78889084 96.96923691 55.8046875 95.2109375 C55.8075174 94.03737701 55.81034729 92.86381653 55.81326294 91.6546936 C55.82448645 87.89469338 55.84959508 84.13492861 55.875 80.375 C55.88502699 77.8307326 55.89415332 75.28646148 55.90234375 72.7421875 C55.92443286 66.4947109 55.95793176 60.24737227 56 54 C54.99188766 54.00666183 54.99188766 54.00666183 53.96340942 54.01345825 C46.98848592 54.05759634 40.01360187 54.08782667 33.03857422 54.10986328 C30.43308909 54.11994064 27.82761531 54.1336027 25.22216797 54.15087891 C21.48402101 54.17505102 17.74602315 54.1864656 14.0078125 54.1953125 C12.25152023 54.21079636 12.25152023 54.21079636 10.45974731 54.22659302 C8.838293 54.22681961 8.838293 54.22681961 7.18408203 54.22705078 C6.22921906 54.231492 5.27435608 54.23593323 4.29055786 54.24050903 C2 54 2 54 0 52 C-0.24050903 49.78536987 -0.24050903 49.78536987 -0.22705078 46.99951172 C-0.22689972 45.95858368 -0.22674866 44.91765564 -0.22659302 43.84518433 C-0.21110916 42.1545134 -0.21110916 42.1545134 -0.1953125 40.4296875 C-0.1924826 39.27832306 -0.18965271 38.12695862 -0.18673706 36.94070435 C-0.17551408 33.25203188 -0.15040556 29.56359947 -0.125 25.875 C-0.11497294 23.37890975 -0.10584662 20.8828157 -0.09765625 18.38671875 C-0.07556784 12.25773016 -0.04206947 6.12888223 0 0 Z " fill="#BF854A" transform="translate(496,738)"/>
<path d="M0 0 C34.32 0 68.64 0 104 0 C104 16.5 104 33 104 50 C103.34 50 102.68 50 102 50 C102 34.16 102 18.32 102 2 C101.34 2.33 100.68 2.66 100 3 C97.09188434 3.0986272 94.20770063 3.13627099 91.29931641 3.12939453 C89.94789299 3.13202301 89.94789299 3.13202301 88.56916809 3.13470459 C85.57994684 3.13911893 82.59078439 3.13618608 79.6015625 3.1328125 C77.52892038 3.13348578 75.45627833 3.134456 73.38363647 3.13571167 C69.03407033 3.13718817 64.6845247 3.13503604 60.33496094 3.13037109 C54.75728531 3.12468094 49.17965787 3.1279486 43.60198402 3.13394356 C39.31950518 3.1375565 35.03703776 3.13640708 30.75455856 3.13381577 C28.69804249 3.13314816 26.64152539 3.13396913 24.58501053 3.13629532 C21.70980329 3.13883303 18.83467408 3.13496504 15.95947266 3.12939453 C15.10737717 3.13141876 14.25528168 3.13344299 13.37736511 3.13552856 C12.59224045 3.13270874 11.80711578 3.12988892 10.99819946 3.12698364 C10.31867029 3.12660662 9.63914112 3.12622959 8.93902016 3.12584114 C7 3 7 3 3 2 C3 17.84 3 33.68 3 50 C52.5 50.495 52.5 50.495 103 51 C103 51.66 103 52.32 103 53 C69.01 53 35.02 53 0 53 C0 35.51 0 18.02 0 0 Z " fill="#2A1517" transform="translate(665,214)"/>
<path d="M0 0 C124.41 0 248.82 0 377 0 C377 0.33 377 0.66 377 1 C270.08 1 163.16 1 53 1 C53 18.16 53 35.32 53 53 C35.51 53.33 18.02 53.66 0 54 C0 36.18 0 18.36 0 0 Z M1 1 C1 17.5 1 34 1 51 C17.5 51 34 51 51 51 C50.9604301 35.66734079 50.9604301 35.66734079 50.90991211 20.3347168 C50.90699189 18.41455134 50.90444358 16.49438527 50.90234375 14.57421875 C50.89722778 13.5747522 50.89211182 12.57528564 50.88684082 11.54553223 C50.88665955 10.11473328 50.88665955 10.11473328 50.88647461 8.6550293 C50.884254 7.82674118 50.88203339 6.99845306 50.87974548 6.14506531 C51 4 51 4 52 1 C35.17 1 18.34 1 1 1 Z " fill="#76472F" transform="translate(286,214)"/>
<path d="M0 0 C16.5 0 33 0 50 0 C50 33.99 50 67.98 50 103 C24.92 103 -0.16 103 -26 103 C-26 85.84 -26 68.68 -26 51 C-17.42 51 -8.84 51 0 51 C0 34.17 0 17.34 0 0 Z M2 1 C1.90912109 6.39666016 1.90912109 6.39666016 1.81640625 11.90234375 C1.75467253 15.37070945 1.69126179 18.83904069 1.62768555 22.30737305 C1.58426122 24.72563639 1.54259188 27.1439319 1.50268555 29.56225586 C1.44516397 33.02988396 1.38141813 36.49734903 1.31640625 39.96484375 C1.29133751 41.59763527 1.29133751 41.59763527 1.26576233 43.26341248 C1.24581711 44.26437454 1.22587189 45.26533661 1.20532227 46.29663086 C1.18977798 47.18265488 1.1742337 48.06867889 1.15821838 48.98155212 C1 51 1 51 0 52 C-1.85174706 52.15786308 -3.7090911 52.25107356 -5.56640625 52.31640625 C-6.57904541 52.35451416 -7.59168457 52.39262207 -8.63500977 52.43188477 C-10.57911743 52.49653931 -10.57911743 52.49653931 -12.5625 52.5625 C-16.666875 52.706875 -20.77125 52.85125 -25 53 C-25 68.84 -25 84.68 -25 101 C-0.91 101 23.18 101 48 101 C48 68 48 35 48 1 C32.82 1 17.64 1 2 1 Z " fill="#ECB962" transform="translate(824,583)"/>
<path d="M0 0 C18.15 0 36.3 0 55 0 C55 34.65 55 69.3 55 105 C36.85 105 18.7 105 0 105 C0 70.35 0 35.7 0 0 Z M2 1 C2 34.66 2 68.32 2 103 C19.16 103 36.32 103 54 103 C54 69.34 54 35.68 54 1 C36.84 1 19.68 1 2 1 Z " fill="#010003" transform="translate(444,373)"/>
<path d="M0 0 C8.88290397 13.32435595 2 31.98611713 2 48 C56.12 48 110.24 48 166 48 C163.19921562 50.80078438 161.45988113 50.26048909 157.53341675 50.2784729 C156.52629959 50.2871615 156.52629959 50.2871615 155.49883664 50.29602563 C153.238597 50.31309386 150.9785607 50.31590792 148.71826172 50.31884766 C147.10221858 50.32814115 145.48618027 50.33830895 143.87014771 50.34928894 C139.4737224 50.37666838 135.07732927 50.39176178 130.68084097 50.40471697 C126.08969002 50.42031288 121.49860513 50.4471143 116.90750122 50.4727478 C108.20943103 50.51959847 99.5113485 50.55631207 90.81321633 50.58942068 C80.91247115 50.62759773 71.01179222 50.67701939 61.11110282 50.72740483 C40.74077795 50.8308182 20.3704254 50.91856332 0 51 C0 34.17 0 17.34 0 0 Z " fill="#12090B" transform="translate(499,739)"/>
<path d="M0 0 C16.83 0 33.66 0 51 0 C51 0.66 51 1.32 51 2 C34.83 2 18.66 2 2 2 C2.33 2.66 2.66 3.32 3 4 C3.09134433 5.33044785 3.12194259 6.66535309 3.12025452 7.99893188 C3.12162918 8.83468246 3.12300385 9.67043304 3.12442017 10.5315094 C3.12082489 11.45004196 3.11722961 12.36857452 3.11352539 13.31494141 C3.11367142 14.28083694 3.11381744 15.24673248 3.1139679 16.24189758 C3.11326937 19.44514181 3.10547978 22.64832839 3.09765625 25.8515625 C3.09579186 28.06830819 3.09436805 30.28505429 3.09336853 32.50180054 C3.08954504 38.34453463 3.07971617 44.18724397 3.06866455 50.02996826 C3.05844682 55.98872544 3.05387013 61.9474866 3.04882812 67.90625 C3.03809377 79.60417756 3.02101935 91.30208672 3 103 C3.66 103.33 4.32 103.66 5 104 C2.525 104.495 2.525 104.495 0 105 C0 70.35 0 35.7 0 0 Z " fill="#D09652" transform="translate(235,790)"/>
<path d="M0 0 C0.33 0 0.66 0 1 0 C1 16.83 1 33.66 1 51 C-16.16 51 -33.32 51 -51 51 C-51 68.82 -51 86.64 -51 105 C-67.83 105 -84.66 105 -102 105 C-102 104.67 -102 104.34 -102 104 C-86.16 104 -70.32 104 -54 104 C-54.02320313 100.19726562 -54.04640625 96.39453125 -54.0703125 92.4765625 C-54.08589592 88.8063185 -54.09804813 85.13607814 -54.10986328 81.46582031 C-54.11994038 78.90883747 -54.13360226 76.35186621 -54.15087891 73.79492188 C-54.17505217 70.12627308 -54.18646585 66.45777621 -54.1953125 62.7890625 C-54.20563507 61.64007477 -54.21595764 60.49108704 -54.22659302 59.30728149 C-54.22681961 57.71585831 -54.22681961 57.71585831 -54.22705078 56.09228516 C-54.231492 55.15518707 -54.23593323 54.21808899 -54.24050903 53.25259399 C-54 51 -54 51 -52 49 C-49.78536987 48.75949097 -49.78536987 48.75949097 -46.99951172 48.77294922 C-45.95858368 48.77310028 -44.91765564 48.77325134 -43.84518433 48.77340698 C-42.1545134 48.78889084 -42.1545134 48.78889084 -40.4296875 48.8046875 C-39.27832306 48.8075174 -38.12695862 48.81034729 -36.94070435 48.81326294 C-33.25203188 48.82448592 -29.56359947 48.84959444 -25.875 48.875 C-23.37890975 48.88502706 -20.8828157 48.89415338 -18.38671875 48.90234375 C-12.25764491 48.92273322 -6.12909215 48.96187849 0 49 C0 32.83 0 16.66 0 0 Z " fill="#120A0F" transform="translate(233,267)"/>
<path d="M0 0 C0.66 0 1.32 0 2 0 C2.04626117 13.52536 2.08183748 27.0507013 2.10362434 40.57612419 C2.11407887 46.85595359 2.12826845 53.13572901 2.15087891 59.41552734 C2.17254784 65.47146259 2.18455604 71.52734579 2.18975449 77.5833168 C2.19346097 79.89827418 2.20069836 82.21322858 2.21146011 84.52816391 C2.22589595 87.76086419 2.22798127 90.9933471 2.22705078 94.22607422 C2.23424133 95.19136047 2.24143188 96.15664673 2.24884033 97.15118408 C2.246091 98.02900543 2.24334167 98.90682678 2.24050903 99.81124878 C2.24235262 100.57633696 2.24419621 101.34142513 2.24609566 102.1296978 C2 104 2 104 0 106 C-2.10073853 106.24050903 -2.10073853 106.24050903 -4.72509766 106.22705078 C-5.71968994 106.22680908 -6.71428223 106.22656738 -7.73901367 106.22631836 C-8.78677979 106.21608643 -9.8345459 106.20585449 -10.9140625 106.1953125 C-12.35591919 106.19229126 -12.35591919 106.19229126 -13.8269043 106.18920898 C-17.4263179 106.17872498 -21.02566362 106.15080251 -24.625 106.125 C-32.66875 106.08375 -40.7125 106.0425 -49 106 C-49 122.5 -49 139 -49 156 C-49.33 156 -49.66 156 -50 156 C-50.33 138.84 -50.66 121.68 -51 104 C-34.17 104 -17.34 104 0 104 C0 69.68 0 35.36 0 0 Z " fill="#10090B" transform="translate(769,583)"/>
<path d="M0 0 C17.49 0 34.98 0 53 0 C53 9.24 53 18.48 53 28 C35.51 28 18.02 28 0 28 C0 18.76 0 9.52 0 0 Z M2 3 C2 10.59 2 18.18 2 26 C18.17 26 34.34 26 51 26 C51 18.41 51 10.82 51 3 C34.83 3 18.66 3 2 3 Z " fill="#C29B53" transform="translate(769,711)"/>
<path d="M0 0 C1.98 0 3.96 0 6 0 C5.67 0.66 5.34 1.32 5 2 C4.01 2 3.02 2 2 2 C2 34.34 2 66.68 2 100 C17.18 100 32.36 100 48 100 C48 67 48 34 48 0 C48.33 0 48.66 0 49 0 C49 33.33 49 66.66 49 101 C32.83 101 16.66 101 0 101 C0 67.67 0 34.34 0 0 Z " fill="#38221F" transform="translate(667,374)"/>
<path d="M0 0 C15.84 0.33 31.68 0.66 48 1 C48 1.33 48 1.66 48 2 C32.82 2 17.64 2 2 2 C2.03480469 5.57457031 2.06960937 9.14914063 2.10546875 12.83203125 C2.12885289 16.28718263 2.14707603 19.74232525 2.16479492 23.19750977 C2.17989816 25.60217218 2.20038208 28.00680698 2.22631836 30.41137695 C2.26263351 33.86416431 2.279711 37.31658804 2.29296875 40.76953125 C2.30845261 41.84773636 2.32393646 42.92594147 2.33988953 44.03681946 C2.34011612 45.03763046 2.34034271 46.03844147 2.34057617 47.06958008 C2.34723801 47.95116287 2.35389984 48.83274567 2.36076355 49.74104309 C2 52 2 52 0.77539062 53.78686523 C-1.53713369 55.36702658 -2.95613478 55.36255012 -5.74682617 55.34057617 C-7.20807922 55.34003235 -7.20807922 55.34003235 -8.69885254 55.33947754 C-9.71991089 55.32412964 -10.74096924 55.30878174 -11.79296875 55.29296875 C-12.73354126 55.28994751 -13.67411377 55.28692627 -14.64318848 55.28381348 C-18.15807054 55.26811257 -21.67279624 55.22622857 -25.1875 55.1875 C-33.045625 55.125625 -40.90375 55.06375 -49 55 C-49 71.17 -49 87.34 -49 104 C-49.66 104 -50.32 104 -51 104 C-51 87.17 -51 70.34 -51 53 C-34.17 53 -17.34 53 0 53 C0 35.51 0 18.02 0 0 Z " fill="#12090E" transform="translate(182,214)"/>
<path d="M0 0 C16.17 0 32.34 0 49 0 C49 34.32 49 68.64 49 104 C32.17 104 15.34 104 -2 104 C-2 103.67 -2 103.34 -2 103 C14.5 103 31 103 48 103 C48 85.84 48 68.68 48 51 C47.34 51 46.68 51 46 51 C46 34.83 46 18.66 46 2 C30.82 2 15.64 2 0 2 C0 1.34 0 0.68 0 0 Z " fill="#985C39" transform="translate(720,583)"/>
<path d="M0 0 C36.63 0 73.26 0 111 0 C111 17.82 111 35.64 111 54 C110.34 54 109.68 54 109 54 C109 36.84 109 19.68 109 2 C73.03 2 37.06 2 0 2 C0 1.34 0 0.68 0 0 Z " fill="#B0663E" transform="translate(554,790)"/>
<path d="M0 0 C0.33 0 0.66 0 1 0 C1 34.98 1 69.96 1 106 C27.73 105.505 27.73 105.505 55 105 C55.33 70.68 55.66 36.36 56 1 C56.33 1 56.66 1 57 1 C57.04626079 14.65574395 57.08183729 28.31146938 57.10362434 41.96727562 C57.11407896 48.3076389 57.12826869 54.64794874 57.15087891 60.98828125 C57.17254755 67.10257114 57.18455597 73.21680949 57.18975449 79.3311348 C57.19346102 81.66842079 57.20069852 84.00570383 57.21146011 86.34296799 C57.22589556 89.60680067 57.22798128 92.87041808 57.22705078 96.13427734 C57.23424133 97.10891434 57.24143188 98.08355133 57.24884033 99.08772278 C57.246091 99.97395828 57.24334167 100.86019379 57.24050903 101.77328491 C57.24235262 102.54574743 57.24419621 103.31820995 57.24609566 104.11408043 C57 106 57 106 55 108 C52.67147827 108.24050903 52.67147827 108.24050903 49.72412109 108.22705078 C48.6231308 108.22689972 47.5221405 108.22674866 46.38778687 108.22659302 C45.19505157 108.21627045 44.00231628 108.20594788 42.7734375 108.1953125 C41.55548492 108.1924826 40.33753235 108.18965271 39.08267212 108.18673706 C35.18001617 108.17551256 31.27758697 108.15040372 27.375 108.125 C24.73437831 108.11497314 22.09375303 108.10584678 19.453125 108.09765625 C12.9686722 108.07556581 6.4843523 108.04206592 0 108 C-1.17013656 105.65972688 -1.11000564 104.3405298 -1.08229065 101.73532104 C-1.07525116 100.84067139 -1.06821167 99.94602173 -1.06095886 99.02426147 C-1.04801285 98.04027374 -1.03506683 97.05628601 -1.02172852 96.04248047 C-1.01212097 95.00830994 -1.00251343 93.9741394 -0.99261475 92.90863037 C-0.95953923 89.478082 -0.91923948 86.0476576 -0.87890625 82.6171875 C-0.85461349 80.24350425 -0.83076952 77.86981637 -0.80735779 75.49612427 C-0.74443285 69.23906185 -0.67539006 62.98208112 -0.60510254 56.72509766 C-0.53449495 50.34411347 -0.4696327 43.96307121 -0.40429688 37.58203125 C-0.27517617 25.054624 -0.13979171 12.52729248 0 0 Z " fill="#CBA255" transform="translate(664,372)"/>
<path d="M0 0 C17.49 0 34.98 0 53 0 C53 0.66 53 1.32 53 2 C36.17 2 19.34 2 2 2 C2 35.99 2 69.98 2 105 C1.34 105 0.68 105 0 105 C0 70.35 0 35.7 0 0 Z " fill="#AD643D" transform="translate(182,790)"/>
<path d="M0 0 C0.66 0 1.32 0 2 0 C2 34.32 2 68.64 2 104 C-15.49 104 -32.98 104 -51 104 C-50.01 103.01 -50.01 103.01 -49 102 C-32.83 102 -16.66 102 0 102 C0 68.34 0 34.68 0 0 Z " fill="#6B3627" transform="translate(233,792)"/>
<path d="M0 0 C0.66 0 1.32 0 2 0 C2 16.83 2 33.66 2 51 C35.33 51 68.66 51 103 51 C103 51.66 103 52.32 103 53 C69.01 53 35.02 53 0 53 C0 35.51 0 18.02 0 0 Z " fill="#080206" transform="translate(665,214)"/>
<path d="M0 0 C16.5 0 33 0 50 0 C50 0.66 50 1.32 50 2 C34.16 2 18.32 2 2 2 C2.33 34.34 2.66 66.68 3 100 C2.01 100 1.02 100 0 100 C0 67 0 34 0 0 Z " fill="#A25E3B" transform="translate(235,687)"/>
<path d="M0 0 C16.5 0 33 0 50 0 C50 17.16 50 34.32 50 52 C33.5 52 17 52 0 52 C0 51.34 0 50.68 0 50 C15.84 50 31.68 50 48 50 C48 34.16 48 18.32 48 2 C32.16 2 16.32 2 0 2 C0 1.34 0 0.68 0 0 Z " fill="#E4AE5D" transform="translate(718,634)"/>
<path d="M0 0 C0.66 0 1.32 0 2 0 C2 17.16 2 34.32 2 52 C20.48 52 38.96 52 58 52 C57.67 70.15 57.34 88.3 57 107 C56.67 107 56.34 107 56 107 C56 89.51 56 72.02 56 54 C50.18761719 54.03480469 50.18761719 54.03480469 44.2578125 54.0703125 C40.51806974 54.08589573 36.77833055 54.09804805 33.03857422 54.10986328 C30.43308909 54.11994064 27.82761531 54.1336027 25.22216797 54.15087891 C21.48402101 54.17505102 17.74602315 54.1864656 14.0078125 54.1953125 C12.25152023 54.21079636 12.25152023 54.21079636 10.45974731 54.22659302 C8.838293 54.22681961 8.838293 54.22681961 7.18408203 54.22705078 C6.22921906 54.231492 5.27435608 54.23593323 4.29055786 54.24050903 C2 54 2 54 0 52 C-0.24050903 49.78536987 -0.24050903 49.78536987 -0.22705078 46.99951172 C-0.22689972 45.95858368 -0.22674866 44.91765564 -0.22659302 43.84518433 C-0.21110916 42.1545134 -0.21110916 42.1545134 -0.1953125 40.4296875 C-0.1924826 39.27832306 -0.18965271 38.12695862 -0.18673706 36.94070435 C-0.17551408 33.25203188 -0.15040556 29.56359947 -0.125 25.875 C-0.11497294 23.37890975 -0.10584662 20.8828157 -0.09765625 18.38671875 C-0.07556784 12.25773016 -0.04206947 6.12888223 0 0 Z " fill="#E7B35F" transform="translate(496,738)"/>
<path d="M0 0 C17.16 0 34.32 0 52 0 C52 0.33 52 0.66 52 1 C35.5 1 19 1 2 1 C2 16.51 2 32.02 2 48 C18.83 48 35.66 48 53 48 C53 48.66 53 49.32 53 50 C35.51 50 18.02 50 0 50 C0 33.5 0 17 0 0 Z " fill="#E0A95A" transform="translate(287,268)"/>
<path d="M0 0 C16.83 0 33.66 0 51 0 C51 0.66 51 1.32 51 2 C34.83 2 18.66 2 2 2 C2 17.84 2 33.68 2 50 C1.34 50 0.68 50 0 50 C0 33.5 0 17 0 0 Z " fill="#A8623C" transform="translate(287,215)"/>
<path d="M0 0 C0 16.5 0 33 0 50 C-0.66 50 -1.32 50 -2 50 C-2 34.16 -2 18.32 -2 2 C-32.69 2 -63.38 2 -95 2 C-95 1.67 -95 1.34 -95 1 C-83.05650379 0.86942467 -71.11300569 0.73902422 -59.16950512 0.60884857 C-53.62398879 0.54840087 -48.07847314 0.48789235 -42.53295898 0.42724609 C-37.18376632 0.36874904 -31.83457196 0.31041012 -26.48537636 0.25218201 C-24.44198863 0.2299109 -22.39860154 0.2075823 -20.35521507 0.18519592 C-17.49877456 0.15391182 -14.64233192 0.12283002 -11.78588867 0.09179688 C-10.93640656 0.08244614 -10.08692444 0.0730954 -9.21170044 0.0634613 C-6.14096993 0.03026067 -3.07093605 0 0 0 Z " fill="#14080E" transform="translate(769,214)"/>
<path d="M0 0 C0.66 0 1.32 0 2 0 C2 15.18 2 30.36 2 46 C17.18 46 32.36 46 48 46 C48 46.66 48 47.32 48 48 C32.16 48 16.32 48 0 48 C0 32.16 0 16.32 0 0 Z " fill="#713B29" transform="translate(718,586)"/>
<path d="M0 0 C0 16.17 0 32.34 0 49 C-0.33 49 -0.66 49 -1 49 C-1 33.82 -1 18.64 -1 3 C-16.18 3 -31.36 3 -47 3 C-47 16.53 -47 30.06 -47 44 C-47.33 44 -47.66 44 -48 44 C-48.33 29.81 -48.66 15.62 -49 1 C-42.18237502 0.85748899 -35.36474881 0.71503992 -28.54711914 0.57275391 C-26.2258293 0.52428867 -23.90454023 0.47578612 -21.58325195 0.42724609 C-18.25472207 0.35765021 -14.92618945 0.28818666 -11.59765625 0.21875 C-10.55287613 0.19687622 -9.50809601 0.17500244 -8.43165588 0.15246582 C-7.47073532 0.13244507 -6.50981476 0.11242432 -5.51977539 0.09179688 C-4.66928116 0.07403198 -3.81878693 0.05626709 -2.94252014 0.03796387 C-1.96178574 0.01879677 -0.98092168 0 0 0 Z " fill="#7B432C" transform="translate(286,268)"/>
<path d="M0 0 C17.16 0.33 34.32 0.66 52 1 C52 1.33 52 1.66 52 2 C35.5 2 19 2 2 2 C2 35 2 68 2 102 C1.67 102 1.34 102 1 102 C0.67 68.34 0.34 34.68 0 0 Z " fill="#DA9F56" transform="translate(287,687)"/>
<path d="M0 0 C0.99 0.495 0.99 0.495 2 1 C2 18.16 2 35.32 2 53 C18.17 53 34.34 53 51 53 C51 53.33 51 53.66 51 54 C25.755 54.495 25.755 54.495 0 55 C0 36.85 0 18.7 0 0 Z " fill="#10080B" transform="translate(131,632)"/>
<path d="M0 0 C0 17.16 0 34.32 0 52 C-0.66 52 -1.32 52 -2 52 C-2 35.83 -2 19.66 -2 3 C-16.19 2.67 -30.38 2.34 -45 2 C-45 1.67 -45 1.34 -45 1 C-38.9127673 0.85728897 -32.82552764 0.71487989 -26.73828125 0.57275391 C-24.66633919 0.52433493 -22.59439908 0.47583262 -20.52246094 0.42724609 C-17.54883317 0.35752946 -14.5751986 0.28810998 -11.6015625 0.21875 C-10.67131256 0.19687622 -9.74106262 0.17500244 -8.78262329 0.15246582 C-7.92188202 0.13244507 -7.06114075 0.11242432 -6.17431641 0.09179688 C-5.41486725 0.07403198 -4.65541809 0.05626709 -3.87295532 0.03796387 C-2.58217333 0.01180036 -1.29104713 0 0 0 Z " fill="#DDAE5B" transform="translate(665,844)"/>
<path d="M0 0 C16.83 0 33.66 0 51 0 C51 8.91 51 17.82 51 27 C33.84 26.67 16.68 26.34 -1 26 C-1 25.67 -1 25.34 -1 25 C15.5 25 32 25 49 25 C49 17.08 49 9.16 49 1 C32.83 1 16.66 1 0 1 C0 0.67 0 0.34 0 0 Z " fill="#F4C86A" transform="translate(771,712)"/>
<path d="M0 0 C0.90378891 0.0377504 1.80757782 0.07550079 2.73875427 0.11439514 C4.2702285 0.17457069 4.2702285 0.17457069 5.8326416 0.23596191 C6.94304306 0.28487076 8.05344452 0.3337796 9.19749451 0.38417053 C10.89336952 0.45288109 10.89336952 0.45288109 12.62350464 0.52297974 C16.25125099 0.67108328 19.87864975 0.82638224 23.50608826 0.98182678 C25.95854273 1.08321064 28.41101653 1.18412836 30.86351013 1.28456116 C36.8904378 1.53239846 42.91709508 1.78615131 48.94358826 2.04432678 C48.94358826 2.37432678 48.94358826 2.70432678 48.94358826 3.04432678 C32.44358826 3.04432678 15.94358826 3.04432678 -1.05641174 3.04432678 C-1.05641174 19.54432678 -1.05641174 36.04432678 -1.05641174 53.04432678 C-1.38641174 53.04432678 -1.71641174 53.04432678 -2.05641174 53.04432678 C-2.22422456 45.65718233 -2.38419045 38.26989847 -2.53858948 30.88246155 C-2.59210041 28.36712252 -2.64743643 25.85182166 -2.7046051 23.33656311 C-2.78626309 19.73012017 -2.86144815 16.12359283 -2.93531799 12.51698303 C-2.96235306 11.38470779 -2.98938812 10.25243256 -3.01724243 9.08584595 C-3.03733871 8.04484238 -3.057435 7.00383881 -3.07814026 5.93128967 C-3.09812576 5.00973587 -3.11811127 4.08818207 -3.13870239 3.13870239 C-3.02802504 0.32185816 -2.8228204 0.06084703 0 0 Z " fill="#3C231B" transform="translate(236.05641174316406,264.95567321777344)"/>
<path d="M0 0 C0.33 0 0.66 0 1 0 C1 2.31 1 4.62 1 7 C18.16 7 35.32 7 53 7 C53.33 6.34 53.66 5.68 54 5 C54 6.32 54 7.64 54 9 C35.85 9 17.7 9 -1 9 C-1 2 -1 2 0 0 Z " fill="#150B0B" transform="translate(445,469)"/>
<path d="M0 0 C0 0.99 0 1.98 0 3 C-17.49 3 -34.98 3 -53 3 C-53 2.34 -53 1.68 -53 1 C-45.77344288 0.85731097 -38.54687982 0.7149254 -31.3203125 0.57275391 C-28.86035017 0.52432177 -26.40038923 0.47581937 -23.94042969 0.42724609 C-20.41081088 0.35756385 -16.88118723 0.28813178 -13.3515625 0.21875 C-12.24632233 0.19687622 -11.14108215 0.17500244 -10.00234985 0.15246582 C-8.98144257 0.13244507 -7.96053528 0.11242432 -6.90869141 0.09179688 C-6.00712311 0.07403198 -5.10555481 0.05626709 -4.17666626 0.03796387 C-2.78459838 0.01368441 -1.3922796 0 0 0 Z " fill="#190E0E" transform="translate(718,475)"/>
</svg>
